<mxfile host="app.diagrams.net" modified="2021-06-04T04:39:33.888Z" agent="5.0 (Windows)" etag="jY7zqsDlz4lmnFLfAEmx" version="14.7.4" type="github" pages="5">
  <diagram id="wn40NA7GhEC_BnvhtzGV" name="Page-1">
    <mxGraphModel dx="865" dy="433" grid="1" gridSize="10" guides="1" tooltips="1" connect="1" arrows="1" fold="1" page="1" pageScale="1" pageWidth="850" pageHeight="1100" math="0" shadow="0">
      <root>
        <mxCell id="0" />
        <mxCell id="1" parent="0" />
        <mxCell id="jnmwdIBIAUSC75S_MWXo-11" style="edgeStyle=orthogonalEdgeStyle;rounded=0;orthogonalLoop=1;jettySize=auto;html=1;" edge="1" parent="1" source="jnmwdIBIAUSC75S_MWXo-1" target="jnmwdIBIAUSC75S_MWXo-3">
          <mxGeometry relative="1" as="geometry" />
        </mxCell>
        <mxCell id="jnmwdIBIAUSC75S_MWXo-1" value="Request" style="html=1;" vertex="1" parent="1">
          <mxGeometry x="130" y="70" width="110" height="50" as="geometry" />
        </mxCell>
        <mxCell id="jnmwdIBIAUSC75S_MWXo-2" value="Ordering&lt;br&gt;system" style="html=1;" vertex="1" parent="1">
          <mxGeometry x="620" y="70" width="110" height="50" as="geometry" />
        </mxCell>
        <mxCell id="jnmwdIBIAUSC75S_MWXo-10" style="edgeStyle=orthogonalEdgeStyle;rounded=0;orthogonalLoop=1;jettySize=auto;html=1;entryX=0;entryY=0.5;entryDx=0;entryDy=0;" edge="1" parent="1" source="jnmwdIBIAUSC75S_MWXo-3" target="jnmwdIBIAUSC75S_MWXo-2">
          <mxGeometry relative="1" as="geometry" />
        </mxCell>
        <mxCell id="rxmNkjQXIPVaTcQmy2V4-1" style="edgeStyle=orthogonalEdgeStyle;rounded=0;orthogonalLoop=1;jettySize=auto;html=1;" edge="1" parent="1" source="jnmwdIBIAUSC75S_MWXo-3">
          <mxGeometry relative="1" as="geometry">
            <mxPoint x="455" y="260" as="targetPoint" />
          </mxGeometry>
        </mxCell>
        <mxCell id="jnmwdIBIAUSC75S_MWXo-3" value="&lt;div align=&quot;center&quot;&gt;Authentication + Authorization&lt;/div&gt;" style="ellipse;whiteSpace=wrap;html=1;align=center;verticalAlign=top;" vertex="1" parent="1">
          <mxGeometry x="380" y="20" width="150" height="150" as="geometry" />
        </mxCell>
        <mxCell id="jnmwdIBIAUSC75S_MWXo-7" style="edgeStyle=orthogonalEdgeStyle;rounded=0;orthogonalLoop=1;jettySize=auto;html=1;" edge="1" parent="1" source="jnmwdIBIAUSC75S_MWXo-4" target="jnmwdIBIAUSC75S_MWXo-6">
          <mxGeometry relative="1" as="geometry" />
        </mxCell>
        <mxCell id="jnmwdIBIAUSC75S_MWXo-12" style="edgeStyle=orthogonalEdgeStyle;rounded=0;orthogonalLoop=1;jettySize=auto;html=1;" edge="1" parent="1" source="jnmwdIBIAUSC75S_MWXo-4">
          <mxGeometry relative="1" as="geometry">
            <mxPoint x="418" y="120" as="targetPoint" />
            <Array as="points">
              <mxPoint x="418" y="110" />
              <mxPoint x="418" y="110" />
              <mxPoint x="418" y="120" />
            </Array>
          </mxGeometry>
        </mxCell>
        <mxCell id="jnmwdIBIAUSC75S_MWXo-4" value="" style="rhombus;whiteSpace=wrap;html=1;" vertex="1" parent="1">
          <mxGeometry x="410" y="70" width="15" height="20" as="geometry" />
        </mxCell>
        <mxCell id="jnmwdIBIAUSC75S_MWXo-13" style="edgeStyle=orthogonalEdgeStyle;rounded=0;orthogonalLoop=1;jettySize=auto;html=1;" edge="1" parent="1" source="jnmwdIBIAUSC75S_MWXo-6">
          <mxGeometry relative="1" as="geometry">
            <mxPoint x="480" y="110" as="targetPoint" />
          </mxGeometry>
        </mxCell>
        <mxCell id="jnmwdIBIAUSC75S_MWXo-6" value="" style="rhombus;whiteSpace=wrap;html=1;" vertex="1" parent="1">
          <mxGeometry x="470" y="70" width="20" height="20" as="geometry" />
        </mxCell>
        <mxCell id="dHneamxZO26Pj_R3AHOR-1" value="Fail" style="text;html=1;align=center;verticalAlign=middle;resizable=0;points=[];autosize=1;strokeColor=#b85450;fillColor=#f8cecc;" vertex="1" parent="1">
          <mxGeometry x="480" y="200" width="30" height="20" as="geometry" />
        </mxCell>
        <mxCell id="txCn9qtYeUhyNfa5RI1d-1" value="Success" style="text;html=1;align=center;verticalAlign=middle;resizable=0;points=[];autosize=1;strokeColor=#82b366;fillColor=#d5e8d4;" vertex="1" parent="1">
          <mxGeometry x="550" y="60" width="60" height="20" as="geometry" />
        </mxCell>
      </root>
    </mxGraphModel>
  </diagram>
  <diagram id="ZnfuRenCbNJs1vvous8k" name="Page-2">
    <mxGraphModel dx="865" dy="1533" grid="1" gridSize="10" guides="1" tooltips="1" connect="1" arrows="1" fold="1" page="1" pageScale="1" pageWidth="850" pageHeight="1100" math="0" shadow="0">
      <root>
        <mxCell id="OvInv0y3VVBVd1RLIJcA-0" />
        <mxCell id="OvInv0y3VVBVd1RLIJcA-1" parent="OvInv0y3VVBVd1RLIJcA-0" />
        <mxCell id="LuORxG9vtJnnJ0c-uHuf-0" style="edgeStyle=orthogonalEdgeStyle;rounded=0;orthogonalLoop=1;jettySize=auto;html=1;" edge="1" parent="OvInv0y3VVBVd1RLIJcA-1" source="LuORxG9vtJnnJ0c-uHuf-1" target="LuORxG9vtJnnJ0c-uHuf-4">
          <mxGeometry relative="1" as="geometry" />
        </mxCell>
        <mxCell id="LuORxG9vtJnnJ0c-uHuf-1" value="Request" style="html=1;" vertex="1" parent="OvInv0y3VVBVd1RLIJcA-1">
          <mxGeometry x="130" y="75" width="110" height="50" as="geometry" />
        </mxCell>
        <mxCell id="LuORxG9vtJnnJ0c-uHuf-2" value="Ordering&lt;br&gt;system" style="html=1;" vertex="1" parent="OvInv0y3VVBVd1RLIJcA-1">
          <mxGeometry x="700" y="75" width="110" height="50" as="geometry" />
        </mxCell>
        <mxCell id="LuORxG9vtJnnJ0c-uHuf-3" style="edgeStyle=orthogonalEdgeStyle;rounded=0;orthogonalLoop=1;jettySize=auto;html=1;entryX=0;entryY=0.5;entryDx=0;entryDy=0;" edge="1" parent="OvInv0y3VVBVd1RLIJcA-1" source="LuORxG9vtJnnJ0c-uHuf-4" target="LuORxG9vtJnnJ0c-uHuf-2">
          <mxGeometry relative="1" as="geometry" />
        </mxCell>
        <mxCell id="EROCIf_JhtIH_7P6-zjI-1" style="edgeStyle=orthogonalEdgeStyle;rounded=0;orthogonalLoop=1;jettySize=auto;html=1;" edge="1" parent="OvInv0y3VVBVd1RLIJcA-1" source="LuORxG9vtJnnJ0c-uHuf-4">
          <mxGeometry relative="1" as="geometry">
            <mxPoint x="480" y="320" as="targetPoint" />
          </mxGeometry>
        </mxCell>
        <mxCell id="LuORxG9vtJnnJ0c-uHuf-4" value="&lt;div align=&quot;center&quot;&gt;Authentication + Authorization&lt;/div&gt;" style="ellipse;whiteSpace=wrap;html=1;align=center;verticalAlign=top;" vertex="1" parent="OvInv0y3VVBVd1RLIJcA-1">
          <mxGeometry x="362.5" y="-10" width="235" height="220" as="geometry" />
        </mxCell>
        <mxCell id="LuORxG9vtJnnJ0c-uHuf-5" style="edgeStyle=orthogonalEdgeStyle;rounded=0;orthogonalLoop=1;jettySize=auto;html=1;" edge="1" parent="OvInv0y3VVBVd1RLIJcA-1" source="LuORxG9vtJnnJ0c-uHuf-7" target="LuORxG9vtJnnJ0c-uHuf-9">
          <mxGeometry relative="1" as="geometry" />
        </mxCell>
        <mxCell id="LuORxG9vtJnnJ0c-uHuf-6" style="edgeStyle=orthogonalEdgeStyle;rounded=0;orthogonalLoop=1;jettySize=auto;html=1;" edge="1" parent="OvInv0y3VVBVd1RLIJcA-1" source="LuORxG9vtJnnJ0c-uHuf-7">
          <mxGeometry relative="1" as="geometry">
            <mxPoint x="418" y="120" as="targetPoint" />
            <Array as="points">
              <mxPoint x="418" y="110" />
              <mxPoint x="418" y="110" />
              <mxPoint x="418" y="120" />
            </Array>
          </mxGeometry>
        </mxCell>
        <mxCell id="LuORxG9vtJnnJ0c-uHuf-7" value="" style="rhombus;whiteSpace=wrap;html=1;" vertex="1" parent="OvInv0y3VVBVd1RLIJcA-1">
          <mxGeometry x="410" y="70" width="15" height="20" as="geometry" />
        </mxCell>
        <mxCell id="LuORxG9vtJnnJ0c-uHuf-8" style="edgeStyle=orthogonalEdgeStyle;rounded=0;orthogonalLoop=1;jettySize=auto;html=1;" edge="1" parent="OvInv0y3VVBVd1RLIJcA-1" source="LuORxG9vtJnnJ0c-uHuf-9">
          <mxGeometry relative="1" as="geometry">
            <mxPoint x="480" y="110" as="targetPoint" />
          </mxGeometry>
        </mxCell>
        <mxCell id="LuORxG9vtJnnJ0c-uHuf-12" style="edgeStyle=orthogonalEdgeStyle;rounded=0;orthogonalLoop=1;jettySize=auto;html=1;entryX=0;entryY=0.5;entryDx=0;entryDy=0;" edge="1" parent="OvInv0y3VVBVd1RLIJcA-1" source="LuORxG9vtJnnJ0c-uHuf-9" target="LuORxG9vtJnnJ0c-uHuf-11">
          <mxGeometry relative="1" as="geometry" />
        </mxCell>
        <mxCell id="LuORxG9vtJnnJ0c-uHuf-9" value="" style="rhombus;whiteSpace=wrap;html=1;" vertex="1" parent="OvInv0y3VVBVd1RLIJcA-1">
          <mxGeometry x="470" y="70" width="20" height="20" as="geometry" />
        </mxCell>
        <mxCell id="LuORxG9vtJnnJ0c-uHuf-10" value="" style="rhombus;whiteSpace=wrap;html=1;" vertex="1" parent="OvInv0y3VVBVd1RLIJcA-1">
          <mxGeometry x="470" y="110" width="20" height="20" as="geometry" />
        </mxCell>
        <mxCell id="LuORxG9vtJnnJ0c-uHuf-11" value="" style="rhombus;whiteSpace=wrap;html=1;" vertex="1" parent="OvInv0y3VVBVd1RLIJcA-1">
          <mxGeometry x="510" y="70" width="20" height="20" as="geometry" />
        </mxCell>
        <mxCell id="LuORxG9vtJnnJ0c-uHuf-14" style="edgeStyle=orthogonalEdgeStyle;rounded=0;orthogonalLoop=1;jettySize=auto;html=1;entryX=0;entryY=0.5;entryDx=0;entryDy=0;" edge="1" parent="OvInv0y3VVBVd1RLIJcA-1" source="LuORxG9vtJnnJ0c-uHuf-13" target="LuORxG9vtJnnJ0c-uHuf-10">
          <mxGeometry relative="1" as="geometry" />
        </mxCell>
        <mxCell id="LuORxG9vtJnnJ0c-uHuf-13" value="" style="rhombus;whiteSpace=wrap;html=1;" vertex="1" parent="OvInv0y3VVBVd1RLIJcA-1">
          <mxGeometry x="410" y="120" width="15" height="20" as="geometry" />
        </mxCell>
        <mxCell id="MLRKnyQWNhOySgdCiTmR-0" value="Success" style="text;html=1;align=center;verticalAlign=middle;resizable=0;points=[];autosize=1;strokeColor=#82b366;fillColor=#d5e8d4;" vertex="1" parent="OvInv0y3VVBVd1RLIJcA-1">
          <mxGeometry x="620" y="55" width="60" height="20" as="geometry" />
        </mxCell>
        <mxCell id="lJfYRSYwcyZY8JMy-G-C-0" value="Fail" style="text;html=1;align=center;verticalAlign=middle;resizable=0;points=[];autosize=1;strokeColor=#b85450;fillColor=#f8cecc;" vertex="1" parent="OvInv0y3VVBVd1RLIJcA-1">
          <mxGeometry x="510" y="240" width="30" height="20" as="geometry" />
        </mxCell>
      </root>
    </mxGraphModel>
  </diagram>
  <diagram id="YG-EqcuCUMBL2_HpWhjC" name="Page-3">
    <mxGraphModel dx="593" dy="297" grid="1" gridSize="10" guides="1" tooltips="1" connect="1" arrows="1" fold="1" page="1" pageScale="1" pageWidth="850" pageHeight="1100" math="0" shadow="0">
      <root>
        <mxCell id="weSvj9eV0SYB-CDQTTM7-0" />
        <mxCell id="weSvj9eV0SYB-CDQTTM7-1" parent="weSvj9eV0SYB-CDQTTM7-0" />
        <mxCell id="dI6AAI38YV3TOB7ffBfv-7" style="edgeStyle=orthogonalEdgeStyle;rounded=0;orthogonalLoop=1;jettySize=auto;html=1;" edge="1" parent="weSvj9eV0SYB-CDQTTM7-1" source="kTGmNVYhmK8J8Rv9byK1-1" target="kTGmNVYhmK8J8Rv9byK1-15">
          <mxGeometry relative="1" as="geometry" />
        </mxCell>
        <mxCell id="kTGmNVYhmK8J8Rv9byK1-1" value="Request" style="html=1;" vertex="1" parent="weSvj9eV0SYB-CDQTTM7-1">
          <mxGeometry x="90" y="285" width="110" height="50" as="geometry" />
        </mxCell>
        <mxCell id="kTGmNVYhmK8J8Rv9byK1-2" value="Ordering&lt;br&gt;system" style="html=1;" vertex="1" parent="weSvj9eV0SYB-CDQTTM7-1">
          <mxGeometry x="710" y="285" width="110" height="50" as="geometry" />
        </mxCell>
        <mxCell id="dI6AAI38YV3TOB7ffBfv-3" style="edgeStyle=orthogonalEdgeStyle;rounded=0;orthogonalLoop=1;jettySize=auto;html=1;" edge="1" parent="weSvj9eV0SYB-CDQTTM7-1" source="kTGmNVYhmK8J8Rv9byK1-15" target="dI6AAI38YV3TOB7ffBfv-0">
          <mxGeometry relative="1" as="geometry" />
        </mxCell>
        <mxCell id="dI6AAI38YV3TOB7ffBfv-8" style="edgeStyle=orthogonalEdgeStyle;rounded=0;orthogonalLoop=1;jettySize=auto;html=1;" edge="1" parent="weSvj9eV0SYB-CDQTTM7-1" source="kTGmNVYhmK8J8Rv9byK1-15">
          <mxGeometry relative="1" as="geometry">
            <mxPoint x="285" y="390" as="targetPoint" />
          </mxGeometry>
        </mxCell>
        <mxCell id="kTGmNVYhmK8J8Rv9byK1-15" value="Handler" style="html=1;" vertex="1" parent="weSvj9eV0SYB-CDQTTM7-1">
          <mxGeometry x="240" y="292.5" width="90" height="35" as="geometry" />
        </mxCell>
        <mxCell id="dI6AAI38YV3TOB7ffBfv-4" style="edgeStyle=orthogonalEdgeStyle;rounded=0;orthogonalLoop=1;jettySize=auto;html=1;" edge="1" parent="weSvj9eV0SYB-CDQTTM7-1" source="dI6AAI38YV3TOB7ffBfv-0" target="dI6AAI38YV3TOB7ffBfv-1">
          <mxGeometry relative="1" as="geometry" />
        </mxCell>
        <mxCell id="dI6AAI38YV3TOB7ffBfv-9" style="edgeStyle=orthogonalEdgeStyle;rounded=0;orthogonalLoop=1;jettySize=auto;html=1;" edge="1" parent="weSvj9eV0SYB-CDQTTM7-1" source="dI6AAI38YV3TOB7ffBfv-0">
          <mxGeometry relative="1" as="geometry">
            <mxPoint x="395" y="390" as="targetPoint" />
          </mxGeometry>
        </mxCell>
        <mxCell id="dI6AAI38YV3TOB7ffBfv-0" value="Handler" style="html=1;" vertex="1" parent="weSvj9eV0SYB-CDQTTM7-1">
          <mxGeometry x="350" y="292.5" width="90" height="35" as="geometry" />
        </mxCell>
        <mxCell id="dI6AAI38YV3TOB7ffBfv-5" style="edgeStyle=orthogonalEdgeStyle;rounded=0;orthogonalLoop=1;jettySize=auto;html=1;" edge="1" parent="weSvj9eV0SYB-CDQTTM7-1" source="dI6AAI38YV3TOB7ffBfv-1" target="dI6AAI38YV3TOB7ffBfv-2">
          <mxGeometry relative="1" as="geometry" />
        </mxCell>
        <mxCell id="dI6AAI38YV3TOB7ffBfv-10" style="edgeStyle=orthogonalEdgeStyle;rounded=0;orthogonalLoop=1;jettySize=auto;html=1;" edge="1" parent="weSvj9eV0SYB-CDQTTM7-1" source="dI6AAI38YV3TOB7ffBfv-1">
          <mxGeometry relative="1" as="geometry">
            <mxPoint x="505" y="390" as="targetPoint" />
          </mxGeometry>
        </mxCell>
        <mxCell id="dI6AAI38YV3TOB7ffBfv-1" value="Handler" style="html=1;" vertex="1" parent="weSvj9eV0SYB-CDQTTM7-1">
          <mxGeometry x="460" y="292.5" width="90" height="35" as="geometry" />
        </mxCell>
        <mxCell id="dI6AAI38YV3TOB7ffBfv-6" style="edgeStyle=orthogonalEdgeStyle;rounded=0;orthogonalLoop=1;jettySize=auto;html=1;" edge="1" parent="weSvj9eV0SYB-CDQTTM7-1" source="dI6AAI38YV3TOB7ffBfv-2" target="kTGmNVYhmK8J8Rv9byK1-2">
          <mxGeometry relative="1" as="geometry" />
        </mxCell>
        <mxCell id="dI6AAI38YV3TOB7ffBfv-11" style="edgeStyle=orthogonalEdgeStyle;rounded=0;orthogonalLoop=1;jettySize=auto;html=1;" edge="1" parent="weSvj9eV0SYB-CDQTTM7-1" source="dI6AAI38YV3TOB7ffBfv-2">
          <mxGeometry relative="1" as="geometry">
            <mxPoint x="615" y="390" as="targetPoint" />
          </mxGeometry>
        </mxCell>
        <mxCell id="dI6AAI38YV3TOB7ffBfv-2" value="Handler" style="html=1;" vertex="1" parent="weSvj9eV0SYB-CDQTTM7-1">
          <mxGeometry x="570" y="292.5" width="90" height="35" as="geometry" />
        </mxCell>
        <mxCell id="dI6AAI38YV3TOB7ffBfv-12" value="Success" style="text;html=1;align=center;verticalAlign=middle;resizable=0;points=[];autosize=1;strokeColor=#82b366;fillColor=#d5e8d4;" vertex="1" parent="weSvj9eV0SYB-CDQTTM7-1">
          <mxGeometry x="310" y="272.5" width="60" height="20" as="geometry" />
        </mxCell>
        <mxCell id="dI6AAI38YV3TOB7ffBfv-13" value="Success" style="text;html=1;align=center;verticalAlign=middle;resizable=0;points=[];autosize=1;strokeColor=#82b366;fillColor=#d5e8d4;" vertex="1" parent="weSvj9eV0SYB-CDQTTM7-1">
          <mxGeometry x="420" y="272.5" width="60" height="20" as="geometry" />
        </mxCell>
        <mxCell id="dI6AAI38YV3TOB7ffBfv-14" value="Fail" style="text;html=1;align=center;verticalAlign=middle;resizable=0;points=[];autosize=1;strokeColor=#b85450;fillColor=#f8cecc;" vertex="1" parent="weSvj9eV0SYB-CDQTTM7-1">
          <mxGeometry x="635" y="350" width="30" height="20" as="geometry" />
        </mxCell>
        <mxCell id="dI6AAI38YV3TOB7ffBfv-15" value="Success" style="text;html=1;align=center;verticalAlign=middle;resizable=0;points=[];autosize=1;strokeColor=#82b366;fillColor=#d5e8d4;" vertex="1" parent="weSvj9eV0SYB-CDQTTM7-1">
          <mxGeometry x="640" y="272.5" width="60" height="20" as="geometry" />
        </mxCell>
        <mxCell id="dI6AAI38YV3TOB7ffBfv-16" value="Fail" style="text;html=1;align=center;verticalAlign=middle;resizable=0;points=[];autosize=1;strokeColor=#b85450;fillColor=#f8cecc;" vertex="1" parent="weSvj9eV0SYB-CDQTTM7-1">
          <mxGeometry x="520" y="350" width="30" height="20" as="geometry" />
        </mxCell>
        <mxCell id="dI6AAI38YV3TOB7ffBfv-17" value="Fail" style="text;html=1;align=center;verticalAlign=middle;resizable=0;points=[];autosize=1;strokeColor=#b85450;fillColor=#f8cecc;" vertex="1" parent="weSvj9eV0SYB-CDQTTM7-1">
          <mxGeometry x="410" y="350" width="30" height="20" as="geometry" />
        </mxCell>
        <mxCell id="dI6AAI38YV3TOB7ffBfv-18" value="Fail" style="text;html=1;align=center;verticalAlign=middle;resizable=0;points=[];autosize=1;strokeColor=#b85450;fillColor=#f8cecc;" vertex="1" parent="weSvj9eV0SYB-CDQTTM7-1">
          <mxGeometry x="300" y="350" width="30" height="20" as="geometry" />
        </mxCell>
      </root>
    </mxGraphModel>
  </diagram>
  <diagram id="mexA9YiWzYNhlHE7LP92" name="Page-4">
    <mxGraphModel dx="1221" dy="611" grid="1" gridSize="10" guides="1" tooltips="1" connect="1" arrows="1" fold="1" page="1" pageScale="1" pageWidth="850" pageHeight="1100" math="0" shadow="0">
      <root>
        <mxCell id="hFNDGC35fC3u1NUe7CnG-0" />
        <mxCell id="hFNDGC35fC3u1NUe7CnG-1" parent="hFNDGC35fC3u1NUe7CnG-0" />
        <mxCell id="hFNDGC35fC3u1NUe7CnG-2" value="Abstract&#xa;Test" style="swimlane;fontStyle=1;align=center;verticalAlign=top;childLayout=stackLayout;horizontal=1;startSize=40;horizontalStack=0;resizeParent=1;resizeParentMax=0;resizeLast=0;collapsible=1;marginBottom=0;" vertex="1" parent="hFNDGC35fC3u1NUe7CnG-1">
          <mxGeometry x="350" y="40" width="220" height="152" as="geometry" />
        </mxCell>
        <mxCell id="hFNDGC35fC3u1NUe7CnG-3" value="- next : Test" style="text;strokeColor=none;fillColor=none;align=left;verticalAlign=top;spacingLeft=4;spacingRight=4;overflow=hidden;rotatable=0;points=[[0,0.5],[1,0.5]];portConstraint=eastwest;" vertex="1" parent="hFNDGC35fC3u1NUe7CnG-2">
          <mxGeometry y="40" width="220" height="26" as="geometry" />
        </mxCell>
        <mxCell id="hFNDGC35fC3u1NUe7CnG-4" value="" style="line;strokeWidth=1;fillColor=none;align=left;verticalAlign=middle;spacingTop=-1;spacingLeft=3;spacingRight=3;rotatable=0;labelPosition=right;points=[];portConstraint=eastwest;" vertex="1" parent="hFNDGC35fC3u1NUe7CnG-2">
          <mxGeometry y="66" width="220" height="8" as="geometry" />
        </mxCell>
        <mxCell id="hFNDGC35fC3u1NUe7CnG-5" value="+ linkWith(Test next) : Test" style="text;strokeColor=none;fillColor=none;align=left;verticalAlign=top;spacingLeft=4;spacingRight=4;overflow=hidden;rotatable=0;points=[[0,0.5],[1,0.5]];portConstraint=eastwest;" vertex="1" parent="hFNDGC35fC3u1NUe7CnG-2">
          <mxGeometry y="74" width="220" height="26" as="geometry" />
        </mxCell>
        <mxCell id="hFNDGC35fC3u1NUe7CnG-6" value="+ abstract check(email,pass) : Boolean" style="text;strokeColor=none;fillColor=none;align=left;verticalAlign=top;spacingLeft=4;spacingRight=4;overflow=hidden;rotatable=0;points=[[0,0.5],[1,0.5]];portConstraint=eastwest;" vertex="1" parent="hFNDGC35fC3u1NUe7CnG-2">
          <mxGeometry y="100" width="220" height="26" as="geometry" />
        </mxCell>
        <mxCell id="hFNDGC35fC3u1NUe7CnG-7" value="# checkNext(email,pass) : Boolean" style="text;strokeColor=none;fillColor=none;align=left;verticalAlign=top;spacingLeft=4;spacingRight=4;overflow=hidden;rotatable=0;points=[[0,0.5],[1,0.5]];portConstraint=eastwest;" vertex="1" parent="hFNDGC35fC3u1NUe7CnG-2">
          <mxGeometry y="126" width="220" height="26" as="geometry" />
        </mxCell>
        <mxCell id="hFNDGC35fC3u1NUe7CnG-8" value="RawDataTest" style="swimlane;fontStyle=1;align=center;verticalAlign=top;childLayout=stackLayout;horizontal=1;startSize=40;horizontalStack=0;resizeParent=1;resizeParentMax=0;resizeLast=0;collapsible=1;marginBottom=0;" vertex="1" parent="hFNDGC35fC3u1NUe7CnG-1">
          <mxGeometry x="90" y="270" width="220" height="100" as="geometry" />
        </mxCell>
        <mxCell id="hFNDGC35fC3u1NUe7CnG-9" value="..." style="text;strokeColor=none;fillColor=none;align=left;verticalAlign=top;spacingLeft=4;spacingRight=4;overflow=hidden;rotatable=0;points=[[0,0.5],[1,0.5]];portConstraint=eastwest;" vertex="1" parent="hFNDGC35fC3u1NUe7CnG-8">
          <mxGeometry y="40" width="220" height="26" as="geometry" />
        </mxCell>
        <mxCell id="hFNDGC35fC3u1NUe7CnG-10" value="" style="line;strokeWidth=1;fillColor=none;align=left;verticalAlign=middle;spacingTop=-1;spacingLeft=3;spacingRight=3;rotatable=0;labelPosition=right;points=[];portConstraint=eastwest;" vertex="1" parent="hFNDGC35fC3u1NUe7CnG-8">
          <mxGeometry y="66" width="220" height="8" as="geometry" />
        </mxCell>
        <mxCell id="hFNDGC35fC3u1NUe7CnG-12" value="+ check(email,pass) : Boolean" style="text;strokeColor=none;fillColor=none;align=left;verticalAlign=top;spacingLeft=4;spacingRight=4;overflow=hidden;rotatable=0;points=[[0,0.5],[1,0.5]];portConstraint=eastwest;" vertex="1" parent="hFNDGC35fC3u1NUe7CnG-8">
          <mxGeometry y="74" width="220" height="26" as="geometry" />
        </mxCell>
        <mxCell id="hFNDGC35fC3u1NUe7CnG-14" value="RoleTest" style="swimlane;fontStyle=1;align=center;verticalAlign=top;childLayout=stackLayout;horizontal=1;startSize=40;horizontalStack=0;resizeParent=1;resizeParentMax=0;resizeLast=0;collapsible=1;marginBottom=0;" vertex="1" parent="hFNDGC35fC3u1NUe7CnG-1">
          <mxGeometry x="350" y="270" width="220" height="100" as="geometry" />
        </mxCell>
        <mxCell id="hFNDGC35fC3u1NUe7CnG-15" value="..." style="text;strokeColor=none;fillColor=none;align=left;verticalAlign=top;spacingLeft=4;spacingRight=4;overflow=hidden;rotatable=0;points=[[0,0.5],[1,0.5]];portConstraint=eastwest;" vertex="1" parent="hFNDGC35fC3u1NUe7CnG-14">
          <mxGeometry y="40" width="220" height="26" as="geometry" />
        </mxCell>
        <mxCell id="hFNDGC35fC3u1NUe7CnG-16" value="" style="line;strokeWidth=1;fillColor=none;align=left;verticalAlign=middle;spacingTop=-1;spacingLeft=3;spacingRight=3;rotatable=0;labelPosition=right;points=[];portConstraint=eastwest;" vertex="1" parent="hFNDGC35fC3u1NUe7CnG-14">
          <mxGeometry y="66" width="220" height="8" as="geometry" />
        </mxCell>
        <mxCell id="hFNDGC35fC3u1NUe7CnG-17" value="+ check(email,pass) : Boolean" style="text;strokeColor=none;fillColor=none;align=left;verticalAlign=top;spacingLeft=4;spacingRight=4;overflow=hidden;rotatable=0;points=[[0,0.5],[1,0.5]];portConstraint=eastwest;" vertex="1" parent="hFNDGC35fC3u1NUe7CnG-14">
          <mxGeometry y="74" width="220" height="26" as="geometry" />
        </mxCell>
        <mxCell id="hFNDGC35fC3u1NUe7CnG-18" value="RoleTest" style="swimlane;fontStyle=1;align=center;verticalAlign=top;childLayout=stackLayout;horizontal=1;startSize=40;horizontalStack=0;resizeParent=1;resizeParentMax=0;resizeLast=0;collapsible=1;marginBottom=0;" vertex="1" parent="hFNDGC35fC3u1NUe7CnG-1">
          <mxGeometry x="610" y="270" width="220" height="100" as="geometry" />
        </mxCell>
        <mxCell id="hFNDGC35fC3u1NUe7CnG-19" value="..." style="text;strokeColor=none;fillColor=none;align=left;verticalAlign=top;spacingLeft=4;spacingRight=4;overflow=hidden;rotatable=0;points=[[0,0.5],[1,0.5]];portConstraint=eastwest;" vertex="1" parent="hFNDGC35fC3u1NUe7CnG-18">
          <mxGeometry y="40" width="220" height="26" as="geometry" />
        </mxCell>
        <mxCell id="hFNDGC35fC3u1NUe7CnG-20" value="" style="line;strokeWidth=1;fillColor=none;align=left;verticalAlign=middle;spacingTop=-1;spacingLeft=3;spacingRight=3;rotatable=0;labelPosition=right;points=[];portConstraint=eastwest;" vertex="1" parent="hFNDGC35fC3u1NUe7CnG-18">
          <mxGeometry y="66" width="220" height="8" as="geometry" />
        </mxCell>
        <mxCell id="hFNDGC35fC3u1NUe7CnG-21" value="+ check(email,pass) : Boolean" style="text;strokeColor=none;fillColor=none;align=left;verticalAlign=top;spacingLeft=4;spacingRight=4;overflow=hidden;rotatable=0;points=[[0,0.5],[1,0.5]];portConstraint=eastwest;" vertex="1" parent="hFNDGC35fC3u1NUe7CnG-18">
          <mxGeometry y="74" width="220" height="26" as="geometry" />
        </mxCell>
        <mxCell id="hFNDGC35fC3u1NUe7CnG-23" value="Extends" style="endArrow=block;endSize=16;endFill=0;html=1;entryX=0;entryY=0.5;entryDx=0;entryDy=0;exitX=0.5;exitY=0;exitDx=0;exitDy=0;" edge="1" parent="hFNDGC35fC3u1NUe7CnG-1" source="hFNDGC35fC3u1NUe7CnG-8" target="hFNDGC35fC3u1NUe7CnG-7">
          <mxGeometry width="160" relative="1" as="geometry">
            <mxPoint x="200" y="230" as="sourcePoint" />
            <mxPoint x="360" y="230" as="targetPoint" />
          </mxGeometry>
        </mxCell>
        <mxCell id="hFNDGC35fC3u1NUe7CnG-24" value="Extends" style="endArrow=block;endSize=16;endFill=0;html=1;entryX=0.577;entryY=1.115;entryDx=0;entryDy=0;exitX=0.5;exitY=0;exitDx=0;exitDy=0;entryPerimeter=0;" edge="1" parent="hFNDGC35fC3u1NUe7CnG-1" source="hFNDGC35fC3u1NUe7CnG-14" target="hFNDGC35fC3u1NUe7CnG-7">
          <mxGeometry width="160" relative="1" as="geometry">
            <mxPoint x="550" y="251" as="sourcePoint" />
            <mxPoint x="700" y="160" as="targetPoint" />
          </mxGeometry>
        </mxCell>
        <mxCell id="hFNDGC35fC3u1NUe7CnG-25" value="Extends" style="endArrow=block;endSize=16;endFill=0;html=1;entryX=1;entryY=0.5;entryDx=0;entryDy=0;exitX=0.5;exitY=0;exitDx=0;exitDy=0;" edge="1" parent="hFNDGC35fC3u1NUe7CnG-1" source="hFNDGC35fC3u1NUe7CnG-18" target="hFNDGC35fC3u1NUe7CnG-7">
          <mxGeometry width="160" relative="1" as="geometry">
            <mxPoint x="660" y="245.01" as="sourcePoint" />
            <mxPoint x="676.94" y="170" as="targetPoint" />
          </mxGeometry>
        </mxCell>
        <mxCell id="hFNDGC35fC3u1NUe7CnG-27" style="edgeStyle=orthogonalEdgeStyle;rounded=0;orthogonalLoop=1;jettySize=auto;html=1;entryX=0;entryY=0.5;entryDx=0;entryDy=0;startSize=40;" edge="1" parent="hFNDGC35fC3u1NUe7CnG-1" source="hFNDGC35fC3u1NUe7CnG-26" target="hFNDGC35fC3u1NUe7CnG-3">
          <mxGeometry relative="1" as="geometry" />
        </mxCell>
        <mxCell id="hFNDGC35fC3u1NUe7CnG-26" value="Server" style="html=1;startSize=40;verticalAlign=top;" vertex="1" parent="hFNDGC35fC3u1NUe7CnG-1">
          <mxGeometry x="70" y="80" width="110" height="50" as="geometry" />
        </mxCell>
        <mxCell id="hFNDGC35fC3u1NUe7CnG-28" value="use" style="text;html=1;align=center;verticalAlign=middle;resizable=0;points=[];autosize=1;strokeColor=none;" vertex="1" parent="hFNDGC35fC3u1NUe7CnG-1">
          <mxGeometry x="235" y="80" width="30" height="20" as="geometry" />
        </mxCell>
      </root>
    </mxGraphModel>
  </diagram>
  <diagram id="scre1JP3ozf1wp8pk4WO" name="Page-5">
    <mxGraphModel dx="1038" dy="519" grid="1" gridSize="10" guides="1" tooltips="1" connect="1" arrows="1" fold="1" page="1" pageScale="1" pageWidth="850" pageHeight="1100" math="0" shadow="0">
      <root>
        <mxCell id="NssU7UO9SIlw5UNnJt5W-0" />
        <mxCell id="NssU7UO9SIlw5UNnJt5W-1" parent="NssU7UO9SIlw5UNnJt5W-0" />
        <mxCell id="-JWMEuu3JwwKokn3LyF8-0" value="&lt;&lt;abstract&gt;&gt;&#xa;Handler" style="swimlane;fontStyle=1;align=center;verticalAlign=top;childLayout=stackLayout;horizontal=1;startSize=40;horizontalStack=0;resizeParent=1;resizeParentMax=0;resizeLast=0;collapsible=1;marginBottom=0;" vertex="1" parent="NssU7UO9SIlw5UNnJt5W-1">
          <mxGeometry x="350" y="40" width="220" height="100" as="geometry" />
        </mxCell>
        <mxCell id="-JWMEuu3JwwKokn3LyF8-1" value="- nextHandler : Handler" style="text;strokeColor=none;fillColor=none;align=left;verticalAlign=top;spacingLeft=4;spacingRight=4;overflow=hidden;rotatable=0;points=[[0,0.5],[1,0.5]];portConstraint=eastwest;" vertex="1" parent="-JWMEuu3JwwKokn3LyF8-0">
          <mxGeometry y="40" width="220" height="26" as="geometry" />
        </mxCell>
        <mxCell id="-JWMEuu3JwwKokn3LyF8-2" value="" style="line;strokeWidth=1;fillColor=none;align=left;verticalAlign=middle;spacingTop=-1;spacingLeft=3;spacingRight=3;rotatable=0;labelPosition=right;points=[];portConstraint=eastwest;" vertex="1" parent="-JWMEuu3JwwKokn3LyF8-0">
          <mxGeometry y="66" width="220" height="8" as="geometry" />
        </mxCell>
        <mxCell id="-JWMEuu3JwwKokn3LyF8-3" value="+ abstract handlerRequest()" style="text;strokeColor=none;fillColor=none;align=left;verticalAlign=top;spacingLeft=4;spacingRight=4;overflow=hidden;rotatable=0;points=[[0,0.5],[1,0.5]];portConstraint=eastwest;" vertex="1" parent="-JWMEuu3JwwKokn3LyF8-0">
          <mxGeometry y="74" width="220" height="26" as="geometry" />
        </mxCell>
        <mxCell id="-JWMEuu3JwwKokn3LyF8-10" value="ConcreteHandler 1" style="swimlane;fontStyle=1;align=center;verticalAlign=top;childLayout=stackLayout;horizontal=1;startSize=40;horizontalStack=0;resizeParent=1;resizeParentMax=0;resizeLast=0;collapsible=1;marginBottom=0;" vertex="1" parent="NssU7UO9SIlw5UNnJt5W-1">
          <mxGeometry x="190" y="240" width="220" height="100" as="geometry" />
        </mxCell>
        <mxCell id="-JWMEuu3JwwKokn3LyF8-11" value="..." style="text;strokeColor=none;fillColor=none;align=left;verticalAlign=top;spacingLeft=4;spacingRight=4;overflow=hidden;rotatable=0;points=[[0,0.5],[1,0.5]];portConstraint=eastwest;" vertex="1" parent="-JWMEuu3JwwKokn3LyF8-10">
          <mxGeometry y="40" width="220" height="26" as="geometry" />
        </mxCell>
        <mxCell id="-JWMEuu3JwwKokn3LyF8-12" value="" style="line;strokeWidth=1;fillColor=none;align=left;verticalAlign=middle;spacingTop=-1;spacingLeft=3;spacingRight=3;rotatable=0;labelPosition=right;points=[];portConstraint=eastwest;" vertex="1" parent="-JWMEuu3JwwKokn3LyF8-10">
          <mxGeometry y="66" width="220" height="8" as="geometry" />
        </mxCell>
        <mxCell id="-JWMEuu3JwwKokn3LyF8-13" value="+ HandlerRequest()" style="text;strokeColor=none;fillColor=none;align=left;verticalAlign=top;spacingLeft=4;spacingRight=4;overflow=hidden;rotatable=0;points=[[0,0.5],[1,0.5]];portConstraint=eastwest;" vertex="1" parent="-JWMEuu3JwwKokn3LyF8-10">
          <mxGeometry y="74" width="220" height="26" as="geometry" />
        </mxCell>
        <mxCell id="-JWMEuu3JwwKokn3LyF8-14" value="ConcreteHandler 2" style="swimlane;fontStyle=1;align=center;verticalAlign=top;childLayout=stackLayout;horizontal=1;startSize=40;horizontalStack=0;resizeParent=1;resizeParentMax=0;resizeLast=0;collapsible=1;marginBottom=0;" vertex="1" parent="NssU7UO9SIlw5UNnJt5W-1">
          <mxGeometry x="490" y="240" width="220" height="100" as="geometry" />
        </mxCell>
        <mxCell id="-JWMEuu3JwwKokn3LyF8-15" value="..." style="text;strokeColor=none;fillColor=none;align=left;verticalAlign=top;spacingLeft=4;spacingRight=4;overflow=hidden;rotatable=0;points=[[0,0.5],[1,0.5]];portConstraint=eastwest;" vertex="1" parent="-JWMEuu3JwwKokn3LyF8-14">
          <mxGeometry y="40" width="220" height="26" as="geometry" />
        </mxCell>
        <mxCell id="-JWMEuu3JwwKokn3LyF8-16" value="" style="line;strokeWidth=1;fillColor=none;align=left;verticalAlign=middle;spacingTop=-1;spacingLeft=3;spacingRight=3;rotatable=0;labelPosition=right;points=[];portConstraint=eastwest;" vertex="1" parent="-JWMEuu3JwwKokn3LyF8-14">
          <mxGeometry y="66" width="220" height="8" as="geometry" />
        </mxCell>
        <mxCell id="-JWMEuu3JwwKokn3LyF8-17" value="+ HandlerRequest()" style="text;strokeColor=none;fillColor=none;align=left;verticalAlign=top;spacingLeft=4;spacingRight=4;overflow=hidden;rotatable=0;points=[[0,0.5],[1,0.5]];portConstraint=eastwest;" vertex="1" parent="-JWMEuu3JwwKokn3LyF8-14">
          <mxGeometry y="74" width="220" height="26" as="geometry" />
        </mxCell>
        <mxCell id="-JWMEuu3JwwKokn3LyF8-19" value="Extends" style="endArrow=block;endSize=16;endFill=0;html=1;exitX=0.5;exitY=0;exitDx=0;exitDy=0;entryX=0;entryY=0.5;entryDx=0;entryDy=0;" edge="1" parent="NssU7UO9SIlw5UNnJt5W-1" source="-JWMEuu3JwwKokn3LyF8-10" target="-JWMEuu3JwwKokn3LyF8-3">
          <mxGeometry width="160" relative="1" as="geometry">
            <mxPoint x="550" y="251" as="sourcePoint" />
            <mxPoint x="450" y="150" as="targetPoint" />
          </mxGeometry>
        </mxCell>
        <mxCell id="-JWMEuu3JwwKokn3LyF8-20" value="Extends" style="endArrow=block;endSize=16;endFill=0;html=1;entryX=1;entryY=0.5;entryDx=0;entryDy=0;exitX=0.5;exitY=0;exitDx=0;exitDy=0;" edge="1" parent="NssU7UO9SIlw5UNnJt5W-1" source="-JWMEuu3JwwKokn3LyF8-14" target="-JWMEuu3JwwKokn3LyF8-3">
          <mxGeometry width="160" relative="1" as="geometry">
            <mxPoint x="660" y="245.01" as="sourcePoint" />
            <mxPoint x="570" y="179" as="targetPoint" />
          </mxGeometry>
        </mxCell>
        <mxCell id="-JWMEuu3JwwKokn3LyF8-21" style="edgeStyle=orthogonalEdgeStyle;rounded=0;orthogonalLoop=1;jettySize=auto;html=1;entryX=0;entryY=0.5;entryDx=0;entryDy=0;startSize=40;" edge="1" parent="NssU7UO9SIlw5UNnJt5W-1" source="-JWMEuu3JwwKokn3LyF8-22" target="-JWMEuu3JwwKokn3LyF8-1">
          <mxGeometry relative="1" as="geometry" />
        </mxCell>
        <mxCell id="-JWMEuu3JwwKokn3LyF8-22" value="&lt;div&gt;client&lt;/div&gt;&lt;div&gt;&lt;br&gt;&lt;/div&gt;" style="html=1;startSize=40;verticalAlign=top;" vertex="1" parent="NssU7UO9SIlw5UNnJt5W-1">
          <mxGeometry x="70" y="80" width="110" height="50" as="geometry" />
        </mxCell>
        <mxCell id="-JWMEuu3JwwKokn3LyF8-23" value="use" style="text;html=1;align=center;verticalAlign=middle;resizable=0;points=[];autosize=1;strokeColor=none;" vertex="1" parent="NssU7UO9SIlw5UNnJt5W-1">
          <mxGeometry x="235" y="80" width="30" height="20" as="geometry" />
        </mxCell>
      </root>
    </mxGraphModel>
  </diagram>
</mxfile>
